<svg version="1.1" id="Layer_1" xmlns="http://www.w3.org/2000/svg" xmlns:xlink="http://www.w3.org/1999/xlink" x="0px" y="0px"
	 width="100%" viewBox="0 0 496 496" enable-background="new 0 0 496 496" xml:space="preserve">
<path fill="#000000" opacity="1.000000" stroke="none" 
	d="
M273.061768,187.362244 
	C270.480408,187.362015 268.347351,187.362015 265.498291,187.362015 
	C267.406616,182.768250 270.450470,180.223831 273.750397,178.249115 
	C275.643921,177.116013 276.731232,175.821152 277.510376,173.930023 
	C280.238251,167.309128 283.003693,160.703552 285.790985,154.107437 
	C286.455658,152.534531 286.939636,151.037521 286.228577,149.311813 
	C281.662964,138.231293 277.148407,127.129753 272.580658,116.050125 
	C272.347412,115.484314 271.778748,115.056793 270.707428,113.779289 
	C264.840210,121.376343 255.124023,125.122833 256.059967,137.577850 
	C257.218140,152.990265 256.352783,168.554947 256.351105,184.053833 
	C256.351013,185.015167 256.258636,185.976486 256.195984,187.194214 
	C253.008743,187.194214 250.087463,187.194214 247.193787,187.194214 
	C245.898544,185.428207 246.612732,183.541794 246.607330,181.775391 
	C246.560516,166.443253 246.418945,151.108170 246.676071,135.780182 
	C246.761230,130.703629 245.362671,126.804222 241.572754,123.434860 
	C238.246750,120.477936 235.301254,117.092995 231.505280,113.196655 
	C228.864594,119.466049 226.556885,124.914307 224.274109,130.373001 
	C221.897766,136.055466 219.622467,141.781754 217.148712,147.421219 
	C215.988785,150.065567 216.023590,152.508163 217.160599,155.117935 
	C218.956055,159.239029 220.657761,163.403244 222.301819,167.587448 
	C224.175003,172.354752 225.801697,177.075455 230.837723,179.854233 
	C233.134689,181.121658 235.383652,183.204819 236.982468,187.198105 
	C230.994797,187.198105 225.514343,187.345367 220.050522,187.108658 
	C218.404938,187.037384 218.206421,184.967407 217.633606,183.606979 
	C214.081238,175.170288 210.409851,166.781540 207.011154,158.283600 
	C205.872559,155.436722 204.157608,154.024689 200.624878,153.800110 
	C200.624878,164.919235 200.624878,175.820969 200.624878,187.199417 
	C193.670258,187.199417 187.240128,187.234207 180.810944,187.172729 
	C179.368332,187.158936 178.499832,185.948196 177.561340,185.014328 
	C175.199326,182.664001 172.418640,180.591568 170.581268,177.881927 
	C163.198639,166.994415 152.483459,168.985214 141.366379,169.812775 
	C141.849625,175.966171 145.804398,180.696320 147.014038,186.242462 
	C139.593460,189.041153 136.752518,187.896759 133.944504,181.099503 
	C129.082489,169.330185 129.082489,169.331131 116.254669,169.327316 
	C114.254875,169.326721 112.254745,169.333450 110.255363,169.300690 
	C106.951378,169.246552 104.768135,167.860687 104.765167,164.272949 
	C104.762192,160.682953 107.034225,159.200089 110.255821,159.162720 
	C120.920486,159.039017 131.587097,159.085571 142.251892,158.968918 
	C144.680481,158.942352 147.198364,159.558258 150.411194,158.061676 
	C143.883347,151.481888 137.991455,144.844177 131.152023,139.127472 
	C129.780548,137.981140 127.954498,138.389603 126.307358,138.386795 
	C112.141632,138.362747 97.975815,138.339920 83.810135,138.369476 
	C80.224564,138.376968 76.859856,138.114166 76.788277,133.404358 
	C76.716316,128.669983 80.368774,128.182465 83.734512,128.115646 
	C93.063545,127.930511 102.398170,128.026520 111.730591,128.013245 
	C114.210945,128.009705 116.691307,128.012726 119.867287,128.012726 
	C116.718613,122.763023 111.931770,120.038795 108.717354,115.924858 
	C102.289665,107.698448 94.197929,102.423607 83.610245,101.657555 
	C79.284706,101.344589 77.678902,98.907555 76.938599,95.014534 
	C75.821014,89.137459 74.327614,83.332710 73.070465,77.480782 
	C72.695335,75.734581 72.150566,73.907639 73.586037,71.817017 
	C81.685951,73.716896 89.902710,75.683510 98.142136,77.550064 
	C100.292549,78.037224 101.218391,79.314423 101.383896,81.370644 
	C102.368645,93.605324 108.715004,102.661095 117.971245,110.231804 
	C121.488800,113.108826 124.296104,116.854225 127.427116,120.203842 
	C127.839050,119.938705 128.250992,119.673569 128.662918,119.408432 
	C128.662918,108.298286 128.656586,97.188141 128.669205,86.078018 
	C128.671280,84.246643 128.614716,82.397888 128.837738,80.588287 
	C129.143829,78.104584 130.700775,76.839119 133.220078,76.636162 
	C135.727020,76.434212 137.586548,77.396706 138.208038,79.796516 
	C138.743164,81.862839 138.945374,84.064705 138.958847,86.208748 
	C139.043732,99.707336 139.100143,113.206970 139.006836,126.705162 
	C138.985855,129.740219 139.735779,132.139755 141.931595,134.302689 
	C147.490631,139.778412 152.904099,145.401871 158.615082,151.209427 
	C160.156708,149.112381 159.606155,147.246613 159.616699,145.562607 
	C159.688736,134.063766 159.692688,122.564201 159.650558,111.065117 
	C159.637543,107.513283 160.291733,104.616310 164.710617,104.742012 
	C168.822906,104.859001 169.268417,107.658211 169.389359,110.972046 
	C169.600479,116.757339 167.097229,123.769127 170.451065,127.985672 
	C173.574875,131.913040 180.280350,133.037018 185.463440,135.268967 
	C191.426956,137.836990 197.482895,140.191437 203.432739,142.789642 
	C206.180054,143.989349 207.614044,143.392807 208.747833,140.540726 
	C212.991608,129.865173 217.296707,119.208176 221.906113,108.687630 
	C223.166306,105.811317 222.569092,104.275795 220.495865,102.295868 
	C215.437912,97.465591 210.620331,92.383980 205.693237,87.416191 
	C202.906311,84.606247 199.893417,81.745972 203.508026,77.654663 
	C205.961685,74.877380 209.307724,75.998123 213.613495,80.403664 
	C224.063629,91.095924 234.594559,101.709229 245.668442,112.937897 
	C246.553879,105.406960 246.627914,98.978035 246.573151,92.542580 
	C246.543594,89.068764 245.456894,86.191872 242.847122,83.650932 
	C234.850204,75.864929 227.049454,67.877380 219.179504,59.961140 
	C218.122955,58.898380 217.009979,57.870911 216.092545,56.694931 
	C214.092636,54.131508 213.912323,51.368740 216.281876,49.041550 
	C218.667450,46.698593 221.258560,47.554573 223.380402,49.605137 
	C229.966675,55.970146 236.462219,62.428986 243.005524,68.838593 
	C243.812683,69.629272 244.695694,70.342514 246.620361,72.043053 
	C246.620361,62.051739 246.549240,53.184361 246.649277,44.318909 
	C246.702179,39.630962 246.504059,35.503895 242.635513,31.694019 
	C238.493256,27.614565 239.690842,20.260057 244.030914,16.429255 
	C248.119843,12.820146 255.082077,13.050063 259.114136,16.927347 
	C263.291534,20.944399 264.066071,28.203665 259.804962,32.235283 
	C256.519226,35.344055 256.269196,38.622368 256.312469,42.517933 
	C256.417877,52.010124 256.346832,61.504272 257.349823,71.856308 
	C263.622528,65.330994 269.849274,58.760643 276.182861,52.294964 
	C281.028168,47.348568 284.253693,46.414314 286.680542,49.396286 
	C290.593567,54.204391 286.244629,57.042015 283.511292,59.869583 
	C275.637543,68.014755 267.597961,76.001755 259.525787,83.951668 
	C257.227600,86.215042 256.187134,88.660675 256.287903,91.928047 
	C256.487488,98.398354 256.346893,104.879158 256.346893,112.814827 
	C262.705994,106.545868 268.194458,101.160904 273.653595,95.746368 
	C279.331085,90.115280 284.961395,84.436523 290.650726,78.817505 
	C293.055756,76.442177 295.868713,74.531647 298.889130,77.481926 
	C301.890961,80.414047 300.809814,83.573631 298.173096,86.273880 
	C292.820251,91.755730 287.427124,97.198586 282.022064,102.629089 
	C280.399536,104.259239 279.503906,105.684769 280.642548,108.276054 
	C285.195740,118.637993 289.581482,129.079697 293.728821,139.610199 
	C295.074219,143.026306 296.626801,143.928070 300.033020,142.471268 
	C309.826080,138.282822 319.681641,134.237503 329.560883,130.255569 
	C331.954315,129.290863 332.813354,127.767685 332.770203,125.291527 
	C332.686035,120.460396 332.819916,115.625893 332.786255,110.793320 
	C332.760895,107.160759 333.940094,104.386108 338.005798,104.332359 
	C342.130920,104.277840 343.281769,107.122902 343.284576,110.712250 
	C343.293274,121.878159 343.277588,133.044220 343.342224,144.209824 
	C343.352478,145.978500 342.875000,147.836212 344.144012,150.153244 
	C351.001556,144.147568 357.241394,137.831238 363.067719,131.131790 
	C363.955322,130.111191 363.667938,127.940598 363.673248,126.301079 
	C363.717743,112.635422 363.698853,98.969559 363.713409,85.303780 
	C363.714996,83.806061 363.661682,82.286011 363.888824,80.815720 
	C364.284912,78.251907 365.766968,76.460999 368.445129,76.262573 
	C371.373199,76.045639 373.215942,77.779549 373.825134,80.476273 
	C374.258057,82.392685 374.183594,84.442757 374.188995,86.433563 
	C374.218689,97.357315 374.203156,108.281197 374.203156,120.426071 
	C382.646027,112.356628 390.618103,105.453156 396.820312,97.098038 
	C399.481842,93.512650 399.804047,88.021599 400.634186,83.298828 
	C401.309875,79.454636 403.114380,77.505745 406.904114,76.750252 
	C414.510956,75.233841 422.063080,73.443085 429.455688,71.805885 
	C430.653046,73.429276 430.240967,74.742455 429.936920,76.024483 
	C428.900208,80.396034 427.113556,84.729675 426.925140,89.133911 
	C426.506470,98.921051 420.974213,102.633034 412.157623,103.221741 
	C406.844604,103.576500 403.038635,106.268906 399.453949,110.123077 
	C394.038147,115.946007 388.038910,121.226303 382.287598,126.737198 
	C382.507202,127.151466 382.726776,127.565727 382.946350,127.979988 
	C391.831207,127.979988 400.716217,127.951538 409.600891,127.994171 
	C413.094849,128.010941 416.596985,128.067017 420.079010,128.325729 
	C423.154236,128.554214 425.707214,129.667358 425.507141,133.443848 
	C425.302460,137.307175 422.883484,138.382477 419.390900,138.368927 
	C405.558716,138.315216 391.723053,138.524628 377.895447,138.269272 
	C373.346741,138.185272 369.988342,139.506607 366.879730,142.771988 
	C361.953674,147.946548 356.672424,152.782990 351.100555,158.190384 
	C353.718536,159.502823 355.694061,159.027740 357.537537,159.036758 
	C367.869629,159.087341 378.202209,159.014908 388.534485,159.045517 
	C390.354767,159.050919 392.208496,159.178421 393.986328,159.543686 
	C396.930939,160.148636 398.107025,162.375671 397.877625,165.109482 
	C397.651550,167.803345 395.777008,169.210770 393.097015,169.255981 
	C388.098694,169.340332 383.093353,169.462357 378.101074,169.283905 
	C374.945343,169.171082 373.119720,170.380890 372.082825,173.313812 
	C371.196533,175.820786 370.033081,178.231491 368.958069,180.669724 
	C365.658447,188.153595 364.957275,188.488464 355.975983,186.563736 
	C356.537292,180.802795 360.510223,176.063995 361.762695,169.352768 
	C351.832428,170.435989 341.435455,165.447906 334.009003,175.709625 
	C333.815918,175.976456 333.502258,176.157623 333.316772,176.428085 
	C326.849884,185.857758 317.944550,188.936066 306.750580,187.548004 
	C302.953217,187.077133 301.902496,186.021225 302.037903,182.501282 
	C302.332336,174.847473 302.401611,167.184647 302.523376,159.524872 
	C302.552002,157.725983 302.882538,155.872314 301.861328,153.950180 
	C298.104858,153.859116 296.384216,156.336441 295.125122,159.353561 
	C292.175110,166.422562 288.882294,173.379944 286.459595,180.626999 
	C284.716705,185.840591 282.209656,188.591751 276.495758,187.391846 
	C275.540558,187.191238 274.507233,187.362854 273.061768,187.362244 
M182.054611,174.441360 
	C184.381104,176.649384 186.258621,179.412476 189.899033,181.054504 
	C190.949753,170.579193 190.951660,160.665344 189.921402,150.736023 
	C189.791580,149.484833 189.272141,148.510712 188.116776,147.951416 
	C182.346481,145.158051 176.442627,142.724152 170.243271,140.735931 
	C167.768463,157.839264 169.031418,161.696655 180.492249,172.887695 
	C180.849365,173.236389 181.200623,173.591110 182.054611,174.441360 
M312.294281,167.486404 
	C312.479523,171.879791 311.864685,176.324768 312.828583,181.319977 
	C319.443024,174.792618 325.583221,168.766556 331.660675,162.677933 
	C332.197388,162.140244 332.586945,161.198975 332.600739,160.437103 
	C332.700378,154.940857 332.706543,149.442474 332.695068,143.944885 
	C332.691223,142.105896 331.726044,140.847000 329.873627,141.605621 
	C324.336761,143.873199 318.229370,145.512909 313.636810,149.067276 
	C310.253845,151.685486 312.737701,157.261734 312.322815,161.495926 
	C312.161072,163.146500 312.296570,164.826187 312.294281,167.486404 
z"/>
<path fill="#000000" opacity="1.000000" stroke="none" 
	d="
M156.426727,353.608826 
	C151.814087,358.404419 147.590042,363.139648 142.932465,367.401093 
	C139.934570,370.144012 138.921265,373.085358 138.985382,377.060211 
	C139.192383,389.887848 139.061676,402.721008 139.048950,415.552032 
	C139.047287,417.217865 139.033157,418.887543 138.922241,420.548584 
	C138.693390,423.975403 137.211533,426.439606 133.414032,426.216095 
	C129.911697,426.009949 128.683914,423.603088 128.685852,420.345673 
	C128.692078,409.847565 128.674194,399.349487 128.666138,388.851379 
	C128.664764,387.069275 128.665955,385.287201 128.665955,382.607880 
	C122.912392,386.716614 119.361023,391.811829 114.737320,395.703949 
	C107.717422,401.613098 102.926865,408.581085 102.453644,418.066589 
	C102.228920,422.571198 100.188751,425.150421 95.186165,425.841675 
	C89.286469,426.656891 83.539619,428.569489 77.720337,429.980927 
	C76.114960,430.370331 74.488205,430.643341 72.327789,429.892853 
	C73.213425,422.932678 75.527229,416.342865 76.625656,409.548523 
	C77.569595,403.709747 80.268799,400.984772 86.182106,400.370789 
	C94.235901,399.534576 100.860466,395.828369 106.159431,389.412903 
	C110.219849,384.496887 115.047508,380.214630 119.533920,375.650482 
	C119.350197,375.196503 119.166473,374.742523 118.982750,374.288544 
	C114.734695,374.288544 110.486649,374.288635 106.238594,374.288544 
	C99.073189,374.288330 91.907455,374.246552 84.742516,374.304108 
	C80.810112,374.335724 76.862717,374.012939 76.932777,368.928406 
	C77.003899,363.766632 81.151924,363.786835 84.959641,363.787933 
	C98.790527,363.791809 112.622269,363.695312 126.451706,363.834106 
	C129.886063,363.868591 132.500732,362.868958 134.863235,360.402435 
	C139.975082,355.065582 145.255630,349.890320 150.467178,344.648987 
	C150.245972,344.203461 150.024765,343.757965 149.803574,343.312439 
	C147.041855,343.312439 144.280121,343.316284 141.518402,343.311768 
	C131.187027,343.294830 120.855614,343.251160 110.524307,343.270294 
	C107.192635,343.276459 104.980949,341.981354 104.811852,338.453094 
	C104.640793,334.883972 106.982567,333.245880 110.098236,333.040924 
	C114.912346,332.724304 119.761383,332.632782 124.581436,332.816864 
	C127.960342,332.945984 129.854706,331.670349 130.914062,328.526611 
	C131.815933,325.850189 133.060745,323.289734 134.143768,320.673828 
	C134.833130,319.008759 135.905563,317.821198 137.848495,317.860748 
	C140.143768,317.907440 142.948685,316.924835 144.557922,318.748962 
	C146.395264,320.831635 144.113220,323.081360 143.464615,325.222443 
	C142.806381,327.395325 141.283081,329.343445 141.831253,332.740784 
	C151.236359,331.664673 161.933609,336.673615 168.991104,326.121674 
	C176.409805,315.029663 187.537491,318.053406 197.873672,317.888580 
	C200.563156,317.845703 200.374115,319.973358 200.368423,321.855194 
	C200.346756,329.020508 200.318192,336.186157 200.375504,343.351044 
	C200.388290,344.948486 199.857452,346.696167 201.290161,348.288818 
	C204.193069,348.611206 205.745026,346.795776 206.794083,344.399292 
	C209.463181,338.302002 212.086441,332.184113 214.671646,326.050659 
	C219.006607,315.765839 217.709885,318.031219 227.328583,317.824066 
	C229.443649,317.778503 231.646042,317.316345 233.787827,318.375610 
	C234.028442,321.051819 231.863297,322.532501 230.243561,323.302124 
	C225.947601,325.343323 225.147018,329.486237 223.060806,332.993683 
	C215.807693,345.187897 215.445236,357.026611 222.802872,369.451721 
	C226.218246,375.219360 228.111359,381.888397 231.071854,389.063202 
	C238.488403,381.228210 248.004486,376.634094 246.870117,363.687866 
	C245.681870,350.126740 246.771866,336.378204 246.460648,322.720825 
	C246.363007,318.436005 248.080154,317.773621 251.705002,317.687836 
	C255.481293,317.598450 256.488281,318.900909 256.438629,322.620667 
	C256.229431,338.281799 256.422211,353.947906 256.283142,369.610596 
	C256.252777,373.029907 257.019379,375.749908 259.717377,377.960236 
	C263.559265,381.107727 266.414337,385.340240 270.908081,388.408112 
	C273.450470,385.078583 274.510040,381.206848 276.053253,377.621338 
	C279.343964,369.975739 282.372040,362.217316 285.645844,354.564148 
	C286.635406,352.250854 286.755432,350.219025 285.673096,347.891541 
	C283.991058,344.274445 282.652618,340.499298 281.082275,336.828033 
	C278.758270,331.394897 277.200134,325.467499 271.163147,322.506165 
	C269.993744,321.932495 268.700165,320.731903 268.629456,318.171356 
	C273.565948,317.508881 278.577759,317.480469 283.556274,318.250122 
	C285.383728,318.532623 285.660248,320.691681 286.289703,322.182129 
	C289.334625,329.392090 292.330017,336.623230 295.293335,343.867188 
	C296.287537,346.297516 297.492950,348.379883 300.802673,348.459412 
	C302.665527,346.192108 302.406311,343.283203 302.477478,340.572632 
	C302.634888,334.578461 302.781769,328.564941 302.464294,322.584167 
	C302.257996,318.698181 303.766968,317.408020 307.346985,317.793182 
	C307.676575,317.828644 308.018768,317.840759 308.345490,317.794952 
	C319.900116,316.175903 329.620392,318.994049 336.528534,329.096466 
	C338.548920,332.051086 341.605408,333.022064 345.262146,332.844574 
	C350.388824,332.595642 355.536621,332.781677 360.825409,332.781677 
	C361.536285,329.032043 358.921265,326.762360 358.436646,323.930359 
	C358.099731,321.961670 355.078186,319.174805 358.792938,318.220764 
	C361.829041,317.441010 365.959076,316.212646 368.110748,320.396667 
	C369.553528,323.202301 370.721985,326.164368 371.817200,329.128845 
	C372.832520,331.877014 374.593658,332.955109 377.522369,332.827271 
	C381.680237,332.645721 385.852448,332.756409 390.017975,332.797638 
	C393.814087,332.835205 397.954956,332.967560 398.049866,338.054932 
	C398.146698,343.248169 394.091309,343.333557 390.216400,343.320404 
	C378.551971,343.280731 366.887268,343.298950 355.222748,343.326630 
	C354.272186,343.328888 353.210327,343.074677 351.928741,344.448669 
	C358.081787,350.564178 364.197113,356.757996 370.467316,362.790833 
	C371.992950,364.258698 374.270569,363.771759 376.252136,363.774384 
	C389.416443,363.791748 402.580780,363.779480 415.745087,363.779755 
	C417.244720,363.779785 418.744873,363.776367 420.243866,363.812622 
	C423.690094,363.895905 426.243774,365.317230 426.195160,369.053101 
	C426.147278,372.732910 423.617584,374.264740 420.171814,374.276520 
	C410.007233,374.311218 399.842224,374.252747 389.677765,374.301208 
	C387.574829,374.311218 385.391052,373.883850 382.305756,375.387512 
	C386.880951,379.789032 391.570526,383.516846 395.280853,388.046722 
	C401.430664,395.554749 408.962372,399.907013 418.583984,400.860352 
	C422.662201,401.264435 424.885895,403.273987 425.554688,407.754395 
	C426.458862,413.811859 428.332947,419.724518 429.789429,425.699646 
	C430.141296,427.143127 430.675476,428.590729 429.529327,430.354218 
	C425.494537,430.913971 421.725128,428.479645 417.703674,428.277313 
	C405.182343,427.647339 398.449524,421.595551 398.202118,408.757080 
	C398.160828,406.614532 397.032562,404.686554 395.391266,403.064606 
	C389.113159,396.860596 382.933929,390.556580 376.694916,384.312805 
	C376.256012,383.873535 375.631348,383.619934 374.220612,382.729034 
	C374.220612,390.320679 374.220215,397.222961 374.220795,404.125244 
	C374.221191,409.124329 374.208069,414.123505 374.228912,419.122498 
	C374.244598,422.880096 373.083405,426.043182 368.807465,425.985260 
	C364.555389,425.927643 363.495911,422.767151 363.516907,418.997009 
	C363.596710,404.667847 363.521423,390.337158 363.709717,376.009735 
	C363.755188,372.547943 362.696503,370.010071 360.194366,367.659454 
	C354.923401,362.707764 349.865631,357.529114 344.641327,352.365540 
	C342.799774,354.522736 343.360077,356.435028 343.349579,358.185089 
	C343.283569,369.182770 343.293274,380.180969 343.301300,391.179016 
	C343.303986,394.845367 342.545319,398.133484 338.067566,398.122589 
	C333.644470,398.111816 332.763672,394.865356 332.764679,391.191162 
	C332.765808,387.025238 332.536987,382.843140 332.832306,378.698273 
	C333.089172,375.092438 331.546539,373.129547 328.401031,371.856354 
	C318.832245,367.983215 309.256134,364.122803 299.767212,360.060547 
	C296.391602,358.615448 294.943268,359.925415 293.719788,362.882690 
	C289.327820,373.498505 284.903168,384.103424 280.265594,394.613068 
	C279.085022,397.288483 280.365112,398.606964 281.944458,400.174255 
	C287.265015,405.454163 292.527161,410.793274 297.874176,416.046112 
	C300.579407,418.703644 301.995941,421.752106 299.033661,424.740570 
	C296.040497,427.760071 292.978485,426.243134 290.332642,423.593994 
	C280.796753,414.046082 271.238617,404.520416 261.679688,394.995544 
	C260.408051,393.728485 259.361481,392.113098 256.551971,391.857574 
	C256.551971,399.655212 256.434052,407.382141 256.678162,415.097656 
	C256.715088,416.265533 258.354095,417.462097 259.391937,418.506409 
	C268.080627,427.249512 276.744537,436.018738 285.546539,444.646851 
	C288.408051,447.451843 290.120483,450.551697 286.950806,453.651184 
	C283.768402,456.763031 280.503906,454.832489 277.783081,452.144501 
	C271.504028,445.941315 265.223907,439.739166 258.926575,433.554565 
	C258.463104,433.099365 257.858490,432.787811 257.303528,432.398285 
	C255.744598,433.352264 256.393005,434.827271 256.381805,436.009369 
	C256.309143,443.674011 256.414948,451.340607 256.311981,459.004578 
	C256.253113,463.385406 256.441895,467.198639 260.175842,470.700134 
	C264.245148,474.516083 263.041229,482.129730 258.753448,485.975891 
	C254.805939,489.516815 246.929764,489.291870 243.155472,485.530426 
	C239.381332,481.769104 238.794693,473.795441 242.915070,470.092957 
	C245.969513,467.348297 246.450424,464.452698 246.451584,460.923279 
	C246.454315,452.595093 246.522964,444.266968 246.552155,435.938721 
	C246.556839,434.604187 246.361664,433.315094 244.669662,431.354126 
	C238.439758,437.817810 232.372818,444.143951 226.269379,450.434692 
	C221.546692,455.302338 218.390961,456.156738 215.751877,453.373260 
	C213.275955,450.761902 214.341858,447.126068 218.817032,442.666412 
	C226.955475,434.556152 235.025879,426.376862 243.229385,418.333191 
	C245.011810,416.585449 245.878967,414.786743 246.060303,412.272614 
	C246.574219,405.147583 246.838379,398.051727 245.786285,389.763275 
	C238.539551,397.116974 231.948013,403.840942 225.315277,410.523987 
	C220.972900,414.899292 216.618515,419.264832 212.177292,423.538940 
	C209.630630,425.989807 206.625763,427.913300 203.468460,424.781708 
	C200.361877,421.700317 201.990265,418.634583 204.531158,416.047028 
	C209.667145,410.816681 214.831940,405.611420 220.106018,400.521362 
	C222.278687,398.424530 222.921585,396.575745 221.591888,393.537109 
	C217.124695,383.328735 212.954575,372.987579 208.829041,362.634155 
	C207.618561,359.596283 206.355377,358.465271 202.916275,359.967773 
	C193.006439,364.297241 182.953659,368.302917 172.916870,372.335876 
	C170.581223,373.274384 169.675644,374.542908 169.804916,377.203186 
	C170.070770,382.674805 170.444580,388.173981 169.458511,393.648590 
	C168.896896,396.766602 167.322327,398.526520 164.082718,398.253235 
	C160.755997,397.972565 159.665421,395.728638 159.665619,392.693787 
	C159.666397,381.029205 159.679871,369.364502 159.633102,357.700104 
	C159.625931,355.912109 160.055374,354.053650 159.185455,352.346313 
	C157.893570,351.678925 157.366425,352.770966 156.426727,353.608826 
M169.396439,342.333862 
	C169.396439,348.685577 169.396439,355.037262 169.396439,362.398529 
	C175.984421,359.599609 181.258087,357.275543 186.600845,355.122833 
	C189.461746,353.970154 190.643250,352.041809 190.602539,348.991364 
	C190.505127,341.688965 190.690704,334.380890 190.477173,327.083435 
	C190.425156,325.305511 191.424042,323.102112 189.177383,321.308777 
	C182.146286,327.641083 175.454834,334.217377 169.396439,342.333862 
M312.297882,349.126648 
	C312.472778,350.883972 311.642334,353.230164 313.626862,354.130768 
	C319.584290,356.834351 325.450165,359.848145 332.774628,361.922943 
	C332.774628,356.042206 332.809326,350.950317 332.757172,345.859344 
	C332.737061,343.893097 333.377197,341.635773 331.987762,340.047363 
	C326.244446,333.481628 320.116516,327.292297 312.302094,320.568878 
	C312.302094,330.755249 312.302094,339.481110 312.297882,349.126648 
z"/>
<path fill="#000000" opacity="1.000000" stroke="none" 
	d="
M142.670090,229.002625 
	C142.669983,222.214249 142.669983,215.925217 142.669983,209.590363 
	C149.110306,207.428360 150.905350,207.965195 154.468094,213.494003 
	C159.602097,221.461121 164.638107,229.491440 169.782516,237.451736 
	C170.721802,238.905197 171.316513,240.736694 173.568085,241.646484 
	C173.568085,231.819321 173.735886,222.238632 173.474884,212.669662 
	C173.386383,209.424332 174.534042,208.592880 177.432632,208.609497 
	C180.262863,208.625717 181.227417,209.773407 181.006775,212.579208 
	C179.963165,225.850647 179.756409,239.125259 181.284958,252.384308 
	C181.359451,253.030563 181.233551,253.699905 181.202774,254.321930 
	C175.072021,256.459534 173.503525,255.864471 170.150299,250.634827 
	C163.632706,240.470154 157.038040,230.354904 149.567841,220.544495 
	C149.567841,231.902710 149.567841,243.260925 149.567841,254.524048 
	C143.225388,255.947037 142.637466,255.527374 142.645447,249.966156 
	C142.655228,243.144760 142.662079,236.323349 142.670090,229.002625 
z"/>
<path fill="#000000" opacity="1.000000" stroke="none" 
	d="
M287.909668,211.767517 
	C296.966370,206.166489 306.134705,205.859741 314.522095,211.472122 
	C323.085846,217.202499 325.516541,226.270325 323.788910,236.146225 
	C322.143768,245.550720 317.542816,252.889038 307.600525,255.640671 
	C296.206787,258.793976 284.609528,252.834274 280.896637,241.586700 
	C277.220367,230.450043 278.537750,220.303146 287.909668,211.767517 
M286.472565,229.007904 
	C286.449677,230.335815 286.296814,231.676361 286.424469,232.989639 
	C287.463470,243.678802 293.744659,250.209778 302.446869,249.719055 
	C309.366425,249.328873 314.172852,244.524521 316.306671,235.560226 
	C318.649231,225.719162 311.924744,212.630188 299.493683,214.251022 
	C293.281036,215.061035 288.848541,219.536331 286.472565,229.007904 
z"/>
<path fill="#000000" opacity="1.000000" stroke="none" 
	d="
M246.196075,255.298492 
	C243.553986,255.210907 243.296967,254.122696 243.330887,252.011093 
	C243.539383,239.026871 243.722687,226.033020 243.403595,213.054932 
	C243.301666,208.909531 244.702713,207.576797 248.409073,207.708771 
	C253.376709,207.885620 258.412170,207.010101 263.284576,208.681000 
	C267.990845,210.294907 271.609283,213.003708 272.268524,218.297714 
	C273.117371,225.114639 271.311310,229.116409 265.458527,231.848541 
	C261.821716,233.546265 262.061188,235.267868 264.079224,237.887650 
	C268.209747,243.249908 272.294739,248.647263 276.752472,254.494507 
	C272.025818,255.930740 268.656464,255.975800 265.879822,251.827911 
	C261.576569,245.399399 256.891388,239.226562 252.040268,232.490036 
	C255.043915,231.719864 257.158661,231.359024 259.139984,230.633774 
	C264.050354,228.836426 266.360077,224.104156 264.779144,219.419510 
	C263.447266,215.472778 257.955688,212.993179 253.525406,214.235046 
	C250.574799,215.062119 251.041016,217.483261 251.029633,219.530502 
	C250.972290,229.839935 250.934937,240.151535 251.101166,250.458969 
	C251.154755,253.782349 250.213669,255.607559 246.196075,255.298492 
z"/>
<path fill="#000000" opacity="1.000000" stroke="none" 
	d="
M364.532898,210.556992 
	C360.635040,216.560654 356.933075,222.284668 353.012726,227.854996 
	C351.009766,230.700974 350.995789,233.061569 353.035980,235.970734 
	C357.188110,241.891388 361.003174,248.048447 365.037140,254.230682 
	C358.280762,256.419128 356.906616,255.873428 354.162933,250.957520 
	C351.758240,246.648972 349.193848,242.417847 345.705170,238.543961 
	C341.876831,242.035995 339.782776,246.245255 337.500885,250.206833 
	C334.142578,256.037018 333.864014,256.381592 326.431519,254.367706 
	C330.245758,248.574219 333.641510,242.721558 337.739197,237.410416 
	C341.063599,233.101547 340.866272,229.586136 337.790771,225.370392 
	C334.096436,220.306442 330.857391,214.910355 327.374176,209.586166 
	C333.776184,207.206635 335.001495,207.688400 338.168701,212.805206 
	C340.594360,216.724014 342.781250,220.833969 346.331573,224.692383 
	C350.118866,220.579453 352.810333,216.115570 355.264740,211.458435 
	C357.350037,207.501633 361.273407,207.023987 364.532898,210.556992 
z"/>
<path fill="#000000" opacity="1.000000" stroke="none" 
	d="
M217.871338,244.881866 
	C217.871979,236.737244 217.889221,229.076218 217.867996,221.415283 
	C217.848572,214.405365 217.158905,213.811935 209.990906,214.440155 
	C208.869064,214.538483 207.742554,215.224152 206.626282,214.418350 
	C205.346771,209.114349 206.223923,207.774567 211.217148,208.163330 
	C218.538055,208.733307 225.860809,208.900650 233.162048,208.268875 
	C236.496536,207.980331 237.283447,209.613022 237.365662,212.296707 
	C237.465668,215.562027 235.334885,214.973907 233.257004,214.718719 
	C225.594345,213.777557 225.269638,214.076981 225.267181,221.678986 
	C225.264221,230.838882 225.284546,239.998779 225.292587,249.158676 
	C225.298386,255.744766 224.844101,256.087524 217.871170,254.656052 
	C217.871170,251.580475 217.871170,248.472977 217.871338,244.881866 
z"/>
<path fill="#000000" opacity="1.000000" stroke="none" 
	d="
M200.177002,212.214203 
	C199.255783,219.600418 200.036942,226.569977 199.924255,233.528732 
	C199.811783,240.474747 199.899597,247.424011 199.899597,254.580627 
	C197.718414,255.914307 195.332001,255.387283 192.611252,254.798096 
	C192.611252,239.598099 192.611252,224.437134 192.611252,209.057098 
	C195.844498,208.422836 199.330795,206.222443 200.177002,212.214203 
z"/>
<path fill="#000000" opacity="1.000000" stroke="none" 
	d="
M266.388245,283.159424 
	C268.424072,283.018402 270.074188,282.695557 271.721008,282.711639 
	C274.969543,282.743347 278.223633,283.190552 279.637512,286.682678 
	C281.045532,290.160309 277.908966,291.639526 275.913177,293.779175 
	C277.275848,297.180023 280.613586,299.130249 282.952179,302.523804 
	C279.835358,303.409698 277.592560,303.954407 275.548309,301.230957 
	C274.034058,299.213593 273.174469,296.380463 269.919739,295.756653 
	C267.818481,298.677063 269.747284,300.576843 272.141571,302.587982 
	C268.544556,303.991241 265.493103,302.683228 262.053040,303.509521 
	C265.797852,296.575378 265.619904,290.257324 262.799927,283.457214 
	C263.408478,282.120911 264.795776,283.013641 266.388245,283.159424 
M272.056580,291.464142 
	C274.489197,290.530914 275.649231,288.901215 273.959564,286.582855 
	C272.946350,285.192657 270.890076,284.471588 269.770874,286.188232 
	C268.503937,288.131439 267.957733,290.589966 272.056580,291.464142 
z"/>
<path fill="#000000" opacity="1.000000" stroke="none" 
	d="
M175.914856,282.701233 
	C179.083984,283.289734 182.186066,283.462860 183.113083,286.819244 
	C184.059662,290.246582 181.148438,291.764008 178.864670,293.992798 
	C181.393387,296.777069 183.885895,299.521454 186.483185,302.381195 
	C178.542816,306.330566 178.473419,296.285095 173.281342,295.479584 
	C171.116470,298.494690 173.035004,300.407196 175.394165,302.604248 
	C171.913940,303.703979 168.983505,303.354675 165.953522,302.864624 
	C168.941681,296.309265 168.917130,290.007385 165.909531,283.271332 
	C169.147568,283.074158 172.319366,282.881042 175.914856,282.701233 
M175.273270,285.327637 
	C172.460678,285.364807 172.287537,287.321625 172.345352,289.402802 
	C172.382339,290.734680 173.055038,291.565308 174.453049,291.561707 
	C176.016586,291.557678 177.429474,290.988831 178.131348,289.572479 
	C179.230011,287.355499 177.710510,286.305847 175.273270,285.327637 
z"/>
<path fill="#000000" opacity="1.000000" stroke="none" 
	d="
M103.227570,283.399902 
	C108.782951,286.681641 108.686470,289.203003 103.054977,293.699982 
	C104.480560,297.277313 108.060173,299.173248 110.467575,302.388885 
	C102.396515,306.134460 102.426758,295.809784 96.822289,295.157990 
	C95.648926,298.076263 96.094200,300.494873 99.593193,302.498352 
	C95.874077,303.785706 93.026787,303.048553 90.077271,303.092133 
	C92.853638,296.319214 93.122948,289.890961 89.437828,282.810852 
	C94.161064,283.743835 98.459221,281.764679 103.227570,283.399902 
M96.319000,289.302612 
	C96.605545,291.982574 98.452866,291.921265 100.277237,291.329407 
	C101.816658,290.829987 102.597641,289.462891 102.324921,287.838867 
	C102.086746,286.420532 101.021767,285.589020 99.594772,285.400513 
	C97.215546,285.086182 96.360542,286.431519 96.319000,289.302612 
z"/>
<path fill="#000000" opacity="1.000000" stroke="none" 
	d="
M367.647522,303.471985 
	C361.999725,301.967590 359.749573,298.289215 359.654053,293.069397 
	C359.559631,287.911133 362.107941,284.527435 366.942078,283.009277 
	C368.746582,282.442566 369.732361,281.491974 370.296204,279.762482 
	C370.752563,278.362579 371.301971,276.819702 373.385406,277.438293 
	C375.006683,279.126587 372.347839,280.424316 373.022156,282.244080 
	C377.057678,283.744629 380.837189,285.689270 381.315094,290.865662 
	C382.144012,299.843018 378.184723,303.663086 367.647522,303.471985 
M376.531891,290.085297 
	C375.317749,287.125092 373.271851,284.891052 370.018524,284.708893 
	C367.797089,284.584534 365.782776,286.062622 364.957764,288.154510 
	C363.568939,291.676178 363.485352,295.328003 365.931854,298.513245 
	C367.357483,300.369415 369.175201,302.031219 371.819183,301.353027 
	C374.539337,300.655273 376.448761,299.012848 377.267029,296.136505 
	C377.814270,294.212677 377.120270,292.554993 376.531891,290.085297 
z"/>
<path fill="#000000" opacity="1.000000" stroke="none" 
	d="
M392.625793,297.293701 
	C392.451416,292.224304 394.117126,287.049713 388.876312,283.533600 
	C398.663086,281.571716 399.809631,292.915771 407.176819,295.094177 
	C407.846558,290.961609 408.668640,286.975555 404.658386,283.522156 
	C407.330780,282.266083 409.707245,283.582428 412.592651,282.701508 
	C408.308868,289.459808 411.290833,296.467743 409.575073,304.157166 
	C404.760254,299.408447 400.498871,295.205597 395.692993,290.465759 
	C394.776154,295.265015 394.267273,299.061371 397.494324,302.855499 
	C394.812714,302.855499 392.480499,302.855499 389.561310,302.855499 
	C391.028839,301.097839 392.713928,299.842010 392.625793,297.293701 
z"/>
<path fill="#000000" opacity="1.000000" stroke="none" 
	d="
M305.216309,292.875732 
	C306.759125,296.359375 308.174072,299.486084 309.788177,303.052856 
	C307.287384,303.052856 305.246796,303.052856 302.772034,303.052856 
	C303.313446,300.382538 304.106506,297.590668 300.940979,296.207306 
	C299.411591,295.538971 297.745514,294.986206 296.190613,296.076416 
	C293.617249,297.880737 294.684021,300.427216 295.280121,302.957092 
	C293.217010,302.957092 291.460815,302.957092 289.269012,302.957092 
	C291.703278,296.237549 296.111633,290.539795 295.845734,283.185394 
	C299.318726,282.250122 301.795929,283.003296 302.811035,287.008698 
	C303.294220,288.915344 304.312531,290.686371 305.216309,292.875732 
z"/>
<path fill="#000000" opacity="1.000000" stroke="none" 
	d="
M227.370300,288.026001 
	C222.172699,283.686432 219.307617,283.524872 216.175583,287.453278 
	C213.212402,291.169891 213.772461,297.330444 217.450546,300.011658 
	C219.398117,301.431396 221.696259,302.537506 223.765640,300.373260 
	C225.935776,298.103607 223.005402,297.068542 222.026489,295.717773 
	C223.219254,294.160919 224.630096,294.810394 225.870224,294.751251 
	C227.172180,294.689178 228.479401,294.737396 229.868469,294.737396 
	C227.731888,303.777802 226.691315,304.579590 218.894913,303.533173 
	C212.305115,302.648682 209.301529,298.951294 209.728561,292.249512 
	C210.096603,286.473450 214.352142,282.810669 220.949799,282.640778 
	C223.091782,282.585632 225.236374,282.632080 227.371399,282.632080 
	C228.346863,284.534851 228.676331,286.218903 227.370300,288.026001 
z"/>
<path fill="#000000" opacity="1.000000" stroke="none" 
	d="
M129.950134,295.465698 
	C127.827682,295.740662 126.273254,293.170319 124.225250,294.759613 
	C123.055374,295.667419 123.231949,297.214722 123.666916,298.481476 
	C124.605515,301.214966 126.513771,302.078186 129.127640,300.736847 
	C130.410858,300.078339 131.540009,299.119629 132.887375,298.194855 
	C134.509308,300.090393 133.327194,301.716492 133.367126,303.200867 
	C128.061554,303.200867 123.137230,303.200867 117.835289,303.200867 
	C120.525734,296.342438 120.521095,289.874512 117.927010,283.024170 
	C122.952072,283.024170 127.838951,283.024170 133.051254,283.024170 
	C133.481079,284.578552 134.609085,286.273590 133.263229,288.569275 
	C130.353714,287.292786 128.096100,282.803131 124.392471,286.439484 
	C123.309792,287.502472 122.849998,289.340210 123.913803,290.582489 
	C126.064323,293.093842 127.637024,290.019745 129.809067,289.601746 
	C130.872711,291.394928 130.134903,293.354095 129.950134,295.465698 
z"/>
<path fill="#000000" opacity="1.000000" stroke="none" 
	d="
M254.191833,302.194885 
	C253.754303,302.853455 253.392975,303.422333 253.024567,303.426910 
	C248.233353,303.486786 243.441101,303.466614 238.142212,303.466614 
	C241.791748,296.477264 241.630020,289.996613 238.533051,283.085815 
	C243.730469,283.085815 248.748032,283.085815 253.810028,283.085815 
	C254.465347,284.707153 254.605698,286.291351 253.863297,288.322723 
	C251.176361,286.753082 248.798950,283.434113 245.328552,286.057709 
	C244.009766,287.054688 243.914352,288.895813 244.686295,290.188660 
	C246.271729,292.843903 248.541977,290.273346 250.500778,290.528381 
	C251.176804,292.003021 251.182022,293.455292 250.918625,295.052979 
	C248.920425,296.318756 246.066147,292.126740 244.588074,295.819427 
	C243.984787,297.326599 243.973022,299.305756 245.715424,300.284119 
	C249.015808,302.137207 251.326721,300.054474 253.281631,297.766357 
	C255.609619,298.924347 254.128067,300.531494 254.191833,302.194885 
z"/>
<path fill="#000000" opacity="1.000000" stroke="none" 
	d="
M334.071777,297.916626 
	C336.947144,299.222382 334.485138,301.354828 335.939514,303.396515 
	C329.264099,303.492065 322.978973,305.514038 318.624512,299.752625 
	C315.800720,296.016388 315.818207,291.521942 318.065002,287.481842 
	C321.918549,280.552582 328.703247,282.981964 334.756531,282.536194 
	C335.695038,284.568176 335.359192,286.405121 335.293365,288.553314 
	C327.754669,284.059204 325.770538,283.983246 323.010162,287.798676 
	C320.309845,291.531067 320.874084,297.105682 324.369965,300.016113 
	C328.279938,303.271240 331.078735,300.706818 334.071777,297.916626 
z"/>
<path fill="#000000" opacity="1.000000" stroke="none" 
	d="
M143.566803,299.806610 
	C143.635742,294.172607 144.505142,288.866821 142.549210,283.392914 
	C147.946442,282.747620 153.116379,282.416565 158.341583,282.796936 
	C159.095840,284.717133 159.466370,286.405487 158.473160,288.442352 
	C155.416824,287.056122 152.832748,282.795166 148.983154,286.370514 
	C147.828262,287.443146 147.749939,289.459686 148.667114,290.567596 
	C151.045044,293.440033 152.913788,289.613373 155.379059,289.455597 
	C155.379059,291.636169 155.379059,293.542786 155.379059,295.674438 
	C153.064789,295.775482 151.555023,293.163544 148.911011,294.383453 
	C147.882217,297.225830 147.377960,300.111389 151.218948,302.569366 
	C147.836609,303.832275 145.020264,302.993317 141.798111,303.044067 
	C142.516922,301.814575 142.993591,300.999237 143.566803,299.806610 
z"/>
<path fill="#000000" opacity="1.000000" stroke="none" 
	d="
M195.603409,298.169373 
	C195.331665,292.920776 196.970230,287.836334 193.071198,283.076416 
	C196.463928,283.076416 199.161667,283.076416 201.997375,283.076416 
	C198.433853,289.808777 197.954910,296.290161 201.954056,303.039673 
	C199.219742,303.039673 196.633362,303.039673 193.977661,303.039673 
	C193.385605,301.052063 195.725464,300.260071 195.603409,298.169373 
z"/>
<path fill="#000000" opacity="1.000000" stroke="none" 
	d="
M345.363525,298.759338 
	C345.258545,293.292969 347.409515,287.838379 342.410217,283.025391 
	C346.082581,283.025391 348.944458,283.025391 351.973938,283.025391 
	C348.097870,289.676025 348.091766,296.188354 351.696259,302.940399 
	C349.026215,303.682281 346.281158,303.173065 343.508759,303.168518 
	C343.079346,301.177765 345.107910,300.579773 345.363525,298.759338 
z"/>
</svg>